<?xml version="1.0" encoding="UTF-8"?>
<svg xmlns="http://www.w3.org/2000/svg" xmlns:xlink="http://www.w3.org/1999/xlink" width="32px" height="32px" viewBox="0 0 32 32" version="1.1">
<g id="surface1">
<path style=" stroke:none;fill-rule:nonzero;fill:rgb(63.921569%,83.529412%,87.843137%);fill-opacity:1;" d="M 32 16 C 32 24.835938 24.835938 32 16 32 C 7.164062 32 0 24.835938 0 16 C 0 7.164062 7.164062 0 16 0 C 24.835938 0 32 7.164062 32 16 Z M 32 16 "/>
<path style=" stroke:none;fill-rule:nonzero;fill:rgb(80.784314%,63.529412%,44.705882%);fill-opacity:1;" d="M 18.503906 20.054688 C 18.421875 21.039062 17.484375 21.722656 16.410156 21.578125 C 15.335938 21.4375 14.53125 20.523438 14.613281 19.535156 L 14.953125 15.40625 C 15.035156 14.421875 15.972656 13.738281 17.046875 13.878906 C 18.121094 14.023438 18.925781 14.9375 18.84375 15.921875 Z M 18.503906 20.054688 "/>
<path style=" stroke:none;fill-rule:nonzero;fill:rgb(83.921569%,66.27451%,44.705882%);fill-opacity:1;" d="M 20.019531 14.5 C 20.164062 16.164062 18.828125 17.527344 17.035156 17.546875 C 15.242188 17.566406 13.671875 16.234375 13.527344 14.574219 L 12.925781 7.609375 C 12.78125 5.949219 14.117188 4.585938 15.910156 4.566406 C 17.703125 4.546875 19.273438 5.875 19.417969 7.539062 Z M 20.019531 14.5 "/>
<path style=" stroke:none;fill-rule:nonzero;fill:rgb(54.509804%,25.098039%,11.764706%);fill-opacity:1;" d="M 12.558594 7.804688 C 12.558594 7.804688 12.910156 12.476562 13.25 11.421875 C 15.128906 5.648438 20.546875 7.992188 20.746094 7.304688 L 19.421875 7.117188 C 19.421875 7.117188 20.785156 6.746094 20.863281 6.089844 C 20.863281 6.089844 13.175781 1.816406 12.558594 7.804688 Z M 12.558594 7.804688 "/>
<path style=" stroke:none;fill-rule:nonzero;fill:rgb(76.862745%,76.470588%,71.764706%);fill-opacity:1;" d="M 15.675781 31.992188 C 15.785156 31.992188 15.890625 32 16 32 C 17.457031 32 18.871094 31.800781 20.214844 31.433594 L 18.460938 18.96875 L 14.621094 19.628906 Z M 15.675781 31.992188 "/>
<path style=" stroke:none;fill-rule:nonzero;fill:rgb(76.862745%,76.470588%,71.764706%);fill-opacity:1;" d="M 10.835938 20.617188 L 10.863281 20.613281 L 13.792969 19.773438 L 13.460938 19.828125 Z M 10.835938 20.617188 "/>
<path style=" stroke:none;fill-rule:nonzero;fill:rgb(49.803922%,50.196078%,49.019608%);fill-opacity:1;" d="M 13.792969 19.773438 L 14.621094 19.628906 L 14.613281 19.535156 Z M 13.792969 19.773438 "/>
<path style=" stroke:none;fill-rule:nonzero;fill:rgb(49.803922%,50.196078%,49.019608%);fill-opacity:1;" d="M 10.601562 20.6875 L 10.863281 20.613281 L 10.835938 20.617188 Z M 10.601562 20.6875 "/>
<path style=" stroke:none;fill-rule:nonzero;fill:rgb(49.803922%,50.196078%,49.019608%);fill-opacity:1;" d="M 13.792969 19.773438 L 10.863281 20.613281 L 10.601562 20.6875 L 10.835938 20.617188 L 9.410156 20.863281 L 6.464844 28.851562 C 7.238281 29.421875 8.0625 29.929688 8.933594 30.355469 L 10.75 24.738281 L 10.769531 25.316406 L 10.703125 31.097656 C 12.265625 31.648438 13.9375 31.957031 15.675781 31.992188 L 14.621094 19.628906 Z M 13.792969 19.773438 "/>
<path style=" stroke:none;fill-rule:nonzero;fill:rgb(49.803922%,50.196078%,49.019608%);fill-opacity:1;" d="M 27.347656 27.277344 L 24.414062 18.363281 L 20.605469 18.789062 L 20.605469 18.792969 L 18.460938 18.96875 L 20.214844 31.433594 C 21.191406 31.167969 22.136719 30.8125 23.03125 30.375 L 22.5625 23.375 L 25.046875 29.195312 C 25.871094 28.628906 26.640625 27.988281 27.347656 27.277344 Z M 27.347656 27.277344 "/>
<path style=" stroke:none;fill-rule:nonzero;fill:rgb(63.529412%,63.529412%,60.784314%);fill-opacity:1;" d="M 17.074219 21.667969 C 17.085938 21.75 17.808594 26.722656 18.136719 31.851562 C 18.222656 31.839844 18.308594 31.832031 18.386719 31.820312 C 18.058594 26.683594 17.335938 21.710938 17.324219 21.632812 Z M 17.074219 21.667969 "/>
</g>
</svg>
